<svg xmlns="http://www.w3.org/2000/svg" version="1.1" viewBox="-5.0 -10.0 110.0 135.0">
 <path d="m43.777 5.4531h12.445c4.2656 0.011719 8.3516 1.707 11.371 4.7227 3.0195 3.0117 4.7227 7.0977 4.7422 11.359v1.4844h-6.3164v-1.4844c-0.015625-5.4219-4.4141-9.8125-9.8398-9.8203h-12.402c-5.418 0.019531-9.8125 4.4023-9.8398 9.8203v1.4844h-6.2422v-1.4844c0.011719-4.2617 1.707-8.3438 4.7227-11.359s7.0977-4.7109 11.359-4.7227zm-36.41 23.453h85.266c3.0938 0.003906 5.6016 2.5117 5.6094 5.6094v10.801c-0.015626 4.3477-1.75 8.5156-4.8242 11.59-3.0781 3.0781-7.2461 4.8086-11.598 4.8203h-23.926v-9.9375h-15.789v9.9375h-23.926c-4.3477-0.015624-8.5156-1.7461-11.59-4.8203-3.0742-3.0781-4.8086-7.2422-4.8203-11.59v-10.801c0.015625-3.0859 2.5117-5.5859 5.5977-5.6094zm90.863 31.453v23.926c-0.003907 5.6641-4.5977 10.258-10.262 10.262h-75.938c-5.6602-0.015625-10.246-4.6016-10.262-10.262v-23.926c4.2109 4.6055 10.164 7.2344 16.41 7.2422h23.926v5.0312h15.789v-5.0312h23.895c6.2461 0.003907 12.207-2.625 16.41-7.2422z"/>
<text x="0.0" y="117.5" font-size="5.0" font-weight="bold" font-family="Arbeit Regular, Helvetica, Arial-Unicode, Arial, Sans-serif" fill="#000000">Created by raptor</text><text x="0.0" y="122.5" font-size="5.0" font-weight="bold" font-family="Arbeit Regular, Helvetica, Arial-Unicode, Arial, Sans-serif" fill="#000000">from Noun Project</text></svg>